<?xml version="1.0" encoding="utf-8"?>
<!-- Designed by Vexels.com - 2020 All Rights Reserved - https://vexels.com/terms-and-conditions/  -->
<svg version="1.1" id="Capa_1" xmlns="http://www.w3.org/2000/svg" xmlns:xlink="http://www.w3.org/1999/xlink" x="0px" y="0px"
	 viewBox="0 0 1200 1200" enable-background="new 0 0 1200 1200" xml:space="preserve">
<g>
	<path fill="#211548" d="M581.558,163.307c11.778,6.906,25.135,5.891,37.281-0.177c0.037-0.019,0.073-0.025,0.11-0.042
		c2.932-7.31,7.001-14.242,9.102-21.97c2.066-7.599,2.936-15.375,4.208-23.095c-12.296-5.986-25.074-9.483-37.808-8.972
		c-9.051,0.362-17.92,4.005-26.29,8.968c1.273,7.722,2.143,15.498,4.209,23.099C574.493,148.924,578.622,155.916,581.558,163.307z"
		/>
	<path fill="#211548" d="M240.126,979.433c-12.321-1.698-24.659-1.989-37.052-0.895c-9.106,0.803-37.518,2.127-44.976,9.054
		c-6.927,6.432-5.043,21.178-2.491,31.597c30.445-11.896,65.494-15.367,97.928-13.002c1.913-5.84,3.782-12.751,2.462-17.391
		C253.456,979.868,248.724,980.621,240.126,979.433z"/>
	<path fill="#211548" d="M700.163,159.337c3.266-30.133,5.904-60.397,8.211-90.839c-0.684-0.526-1.323-1.171-1.87-1.983
		c-3.094-4.581-6.213-8.802-10.575-12.303c-1.772-1.423-4.07-2.742-6.225-4.213c-15.097,19.392-34.771,39.405-57.647,49.522
		c9.19,4.93,17.888,10.773,26.161,17.091C674.02,128.681,688.77,142.892,700.163,159.337z"/>
	<path fill="#211548" d="M483.869,369.651c18.644,38.954,39.098,77.014,60.549,114.488c3.979,6.952,8.097,13.828,12.262,20.678
		c-18.172-56.853-33.037-114.935-45.964-172.779c-18.443-82.519-36.878-172.06-29.025-257.253
		c-12.007,8.314-25.414,14.845-37.251,23.374c-17.279,12.451-31.184,27.903-46.215,42.745
		c12.563,36.724,22.572,74.259,35.892,110.765C448.749,291.776,465.439,331.147,483.869,369.651z"/>
	<path fill="#211548" d="M538.755,119.072c9.069-7.035,18.709-14.51,29.108-19.76c-22.66-10.184-42.15-30.055-57.138-49.305
		c-2.148,1.461-4.444,2.771-6.231,4.206c-4.374,3.512-7.474,7.712-10.575,12.303c-0.55,0.814-1.188,1.459-1.869,1.987
		c2.245,29.62,4.805,59.071,7.95,88.398C511.135,142.685,524.378,130.227,538.755,119.072z"/>
	<path fill="#211548" d="M643.817,504.593c4.812-7.904,9.561-15.844,14.138-23.878c20.722-36.382,40.519-73.292,58.598-111.064
		c18.973-39.639,36.133-80.2,51.053-121.541c12.379-34.3,21.865-69.503,33.507-104.015c-1.855-1.798-2.63-4.234-2.505-6.761
		c-13.69-13.725-26.727-27.717-42.625-39.174c-11.841-8.533-25.245-15.059-37.251-23.374
		c7.855,85.206-10.578,174.718-29.025,257.253C676.797,389.803,661.956,447.812,643.817,504.593z"/>
	<path fill="#211548" d="M600.212,368.036c10.796-17.048,28.556-30.561,41.958-45.259c2.304-2.528,4.485-5.16,6.727-7.742
		c-7.11-22.095-9.228-46.62-13.982-69.217c-4.52-21.483-9.932-42.691-16.974-63.458c-11.808,3.861-24.106,4.388-35.819,0.249
		c-14.89,42.743-23.179,87.581-30.887,132.102c2.335,2.693,4.612,5.434,7.017,8.066C571.683,337.47,589.416,350.975,600.212,368.036
		z"/>
	<path fill="#211548" d="M662.961,297.988c7.786-9.942,15.168-20.191,22.184-30.696c5.358-30.577,9.644-61.229,13.223-92.003
		c-13.126-16.658-30.701-34.945-50.275-48.089c0.549,16.094-4.008,35.499-14.942,45.089c8.568,23.561,14.967,47.808,20.059,72.353
		C656.765,261.774,661.126,280.015,662.961,297.988z"/>
	<path fill="#211548" d="M543.677,135.927c-15.401,12.453-29.942,26.747-41.185,43.148c3.491,29.505,7.648,58.898,12.786,88.223
		c7.45,11.16,15.318,22.032,23.642,32.552c6.46-43.115,13.908-86.271,28.516-127.431c-10.626-9.175-15.309-27.57-15.16-43.355
		C549.292,131.384,546.417,133.712,543.677,135.927z"/>
	<path fill="#211548" d="M1043.83,971.696c-2.819-32.854-1.455-66.096-2.12-99.036c-0.723-35.748-2.2-71.481-4.4-107.168
		c-4.476-72.583-11.862-145.013-22.518-216.951c-17.83-120.374-45.08-238.798-82.813-354.409
		C902.776,258.528,885,328.171,874.942,397.975c-4.397,30.518-6.283,60.976-10.293,91.347
		c17.931,78.914,32.984,158.437,46.262,238.261c7.314,43.978,14.432,88.006,20.763,132.139
		c4.901,34.171,13.346,71.002,13.212,105.974C978.618,959.451,1010.882,962.663,1043.83,971.696z"/>
	<path fill="#211548" d="M1038.525,986.53c-10.263-6.133-29.624-6.915-41.176-7.992c-12.81-1.196-30.672-2.561-42.978,1.721
		c-6.382,2.221-7.865,1.098-9.944,8.538c-1.192,4.272,0.648,11.4,2.528,17.385c32.405-2.354,67.438,1.125,97.853,13.006
		C1047.621,1007.398,1048.57,992.533,1038.525,986.53z"/>
	<path fill="#211548" d="M812.925,148.013c-8.714,76.658-40.831,152.792-72.359,222.192
		c-35.359,77.831-76.051,159.312-127.922,227.815c9.467,74.465,27.651,147.767,55.095,217.669
		c36.836,93.827,90.794,181.388,158.485,256.105c25,27.593,52.037,54.962,81.726,78.205
		c-14.67-69.609-29.281-139.233-43.219-208.995c-14.131-70.73-27.597-141.6-39.66-212.717c-5.628-33.176-13.406-64.449-8.434-97.863
		c5.196-34.922,10.969-69.756,17.322-104.486c11.654-63.721,14.457-128.433,28.095-191.927
		c11.694-54.44,28.643-107.806,52.406-158.187C881.351,164.062,847.366,154.983,812.925,148.013z"/>
	<path fill="#211548" d="M608.299,748.846c-0.269,27.476-0.258,54.97-0.977,82.438c-0.373,14.311-0.406,29.828-2.549,44.578
		c15.057-11.402,34.54-21.878,52.581-22.876c-19.83-46.004-35.899-93.685-48.106-142.353
		C608.824,723.489,608.422,736.26,608.299,748.846z"/>
	<path fill="#211548" d="M678.891,300.494c-7.069,10.827-14.674,21.305-22.975,31.432c-14.632,17.853-31.435,39.16-53.171,48.486
		c-0.682,0.608-1.548,0.936-2.536,0.856c-0.978,0.076-1.837-0.247-2.513-0.848c-21.75-9.322-38.531-30.609-53.19-48.494
		c-8.3-10.127-15.906-20.605-22.975-31.432c2.293,11.356,4.747,22.705,7.382,34.049c18.528,79.738,43.798,157.067,71.298,233.959
		c27.5-76.892,52.769-154.221,71.298-233.959C674.145,323.199,676.598,311.85,678.891,300.494z"/>
	<path fill="#211548" d="M459.856,370.206c-32.123-70.71-64.829-148.388-72.802-226.506c-36.31,6.995-71.802,16.736-106.388,29.779
		c29.439,58.745,50.418,121.728,62.709,186.257c5.556,29.162,9.481,58.701,11.263,88.34c2.197,36.54,9.288,71.39,15.658,107.437
		c5.642,31.925,16.376,68.24,15.686,100.636c-0.701,32.933-10.764,68.284-16.323,100.759
		c-22.523,131.597-49.811,262.387-77.318,393.03c6.848-5.524,13.551-11.231,20.139-17.012
		c154.99-135.982,249.498-331.695,275.302-534.9C535.913,529.527,495.213,448.031,459.856,370.206z"/>
	<path fill="#211548" d="M587.562,828.532c0.045-27.58,0.76-55.169,1.208-82.743c0.131-8.04,0.149-16.159,0.133-24.323
		c-8.815,34.146-19.565,67.794-32.507,100.759c-4.506,11.478-9.265,22.85-14.24,34.125c7.63,1.282,15.118,4.36,22.479,7.427
		c8.58,3.578,16.81,7.812,24.387,13.021C587.001,860.836,587.538,843.932,587.562,828.532z"/>
	<path fill="#211548" d="M270.176,188.925c-38.622,117.264-66.449,237.433-84.546,359.616
		c-10.844,73.203-18.307,146.917-22.753,220.782c-2.148,35.683-3.572,71.41-4.242,107.151c-0.592,31.689,0.654,63.621-2.041,95.22
		c32.946-9.031,65.212-12.239,98.937-5.999c-0.17-36.057,8.626-74.124,13.701-109.349c6.196-43.003,13.15-85.907,20.279-128.764
		c13.591-81.714,29.031-163.115,47.529-243.866c-2.805-27.171-3.704-54.331-7.154-81.775
		C320.695,328.847,300.552,256.184,270.176,188.925z"/>
</g>
</svg>
